<svg xmlns="http://www.w3.org/2000/svg" xmlns:xlink="http://www.w3.org/1999/xlink" viewBox="0,0,256,256" width="100px" height="100px"><g fill="none" fill-rule="nonzero" stroke="none" stroke-width="none" stroke-linecap="none" stroke-linejoin="none" stroke-miterlimit="10" stroke-dasharray="" stroke-dashoffset="0" font-family="none" font-weight="none" font-size="none" text-anchor="none" style="mix-blend-mode: normal"><g transform="scale(2.56,2.56)"><circle cx="53.5" cy="53.5" r="31.5" fill="#ff8f00" stroke="none" stroke-width="1" stroke-linecap="butt" stroke-linejoin="miter"></circle><path d="M49.978,21.865l-1.214,-4.112l1.82,-4.922l1.753,-3.505l26.292,15.674l5.967,7.449l0.505,5.899l-1.618,4.753l-4.045,-8.393l-4.382,-3.843l-6,-4.382l-6.505,-2.798l-7.147,-1.584z" fill="#ffffff" stroke="none" stroke-width="1" stroke-linecap="butt" stroke-linejoin="miter"></path><path d="M12.065,12.013l25.68,15.27c7.17,4.302 9.417,13.649 4.985,20.74v0c-4.319,6.911 -13.378,9.088 -20.366,4.895l-3.465,-2.131c-4.218,-2.531 -5.975,-7.748 -4.148,-12.314v0v0c-3.74,-2.805 -4.606,-7.301 -2.912,-11.63l0.227,-0.567v0c-2.755,-1.837 -3.808,-5.378 -2.503,-8.421z" fill="#ffffff" stroke="none" stroke-width="1" stroke-linecap="butt" stroke-linejoin="miter"></path><path d="M36.979,26.671c4.809,-2.974 10.478,-4.69 16.547,-4.69c17.401,0 31.508,14.106 31.508,31.508c0,17.402 -14.107,31.507 -31.508,31.507c-17.401,0 -31.508,-14.106 -31.508,-31.507c0,-0.259 0.003,-0.518 0.009,-0.776" fill="none" stroke="#1f212b" stroke-width="2" stroke-linecap="butt" stroke-linejoin="miter"></path><path d="M12.065,12.013l25.68,15.27c7.17,4.302 9.417,13.649 4.985,20.74v0c-4.319,6.911 -13.378,9.088 -20.366,4.895l-3.465,-2.131c-4.218,-2.531 -5.975,-7.748 -4.148,-12.314v0v0c-3.74,-2.805 -4.606,-7.301 -2.912,-11.63l0.227,-0.567v0c-2.755,-1.837 -3.808,-5.378 -2.503,-8.421z" fill="none" stroke="#1f212b" stroke-width="2" stroke-linecap="round" stroke-linejoin="round"></path><path d="M83.567,43.438c3.256,-6.854 0.846,-15.215 -5.821,-19.215l-25.629,-15.223l-2.503,5.841c-0.992,2.315 -0.782,4.867 0.826,6.839" fill="none" stroke="#1f212b" stroke-width="2" stroke-linecap="round" stroke-linejoin="round"></path><path d="M65.701,71.037c-2.334,5.208 -5.626,9.892 -9.652,13.831" fill="none" stroke="#1f212b" stroke-width="1" stroke-linecap="round" stroke-linejoin="miter"></path><path d="M68.446,62.904c-0.331,1.417 -0.729,2.808 -1.19,4.17" fill="none" stroke="#1f212b" stroke-width="1" stroke-linecap="round" stroke-linejoin="miter"></path><path d="M64.229,31.141c3.446,6.378 5.403,13.68 5.403,21.439c0,2.519 -0.206,4.989 -0.603,7.396" fill="none" stroke="#1f212b" stroke-width="1" stroke-linecap="round" stroke-linejoin="miter"></path><path d="M57.652,21.944c1.759,1.905 3.357,3.961 4.771,6.148" fill="none" stroke="#1f212b" stroke-width="1" stroke-linecap="round" stroke-linejoin="miter"></path><path d="M31.598,75.559c11.093,0 19.017,-26.032 38.034,-26.032c14.263,0 7.924,24.448 7.924,24.448" fill="none" stroke="#1f212b" stroke-width="1" stroke-linecap="round" stroke-linejoin="miter"></path><path d="M45.027,45.149c4.015,-1.542 23.22,-7.508 38.867,0.3" fill="none" stroke="#1f212b" stroke-width="1" stroke-linecap="round" stroke-linejoin="miter"></path><path d="M38.574,27.536c8.872,0 13.87,7.003 27.011,7.003c8.387,0 7.217,-6.522 7.217,-6.522" fill="none" stroke="#1f212b" stroke-width="1" stroke-linecap="round" stroke-linejoin="miter"></path></g></g></svg>