<?xml version="1.0" encoding="utf-8"?>
<!-- Generator: Adobe Illustrator 28.2.0, SVG Export Plug-In . SVG Version: 6.00 Build 0)  -->
<svg version="1.1" id="Layer_1" xmlns="http://www.w3.org/2000/svg" xmlns:xlink="http://www.w3.org/1999/xlink" x="0px" y="0px"
	 viewBox="0 0 706 526.6" style="enable-background:new 0 0 706 526.6;" xml:space="preserve">
<style type="text/css">
	.st0{fill:#D6C2AD;}
	.st1{fill:#B29C88;}
	.st2{fill:#F5E0CD;}
	.st3{fill:#ECC19C;}
	.st4{fill:#CF9E76;}
	.st5{fill:#D09F77;}
	.st6{fill:#FFFFFF;}
	.st7{fill:#D0D2D3;}
	.st8{fill:#F05A28;}
</style>
<path d="M230.7,133.9C291.3,54.6,390.6,16.2,486.6,2c23.4,1,46.9,0.9,70.3,2c4.6,1.5,9,5.9,7.7,11.2c0.1,38.8-0.2,77.6,0.1,116.4
	c19.9,12.8,35.3,31.2,49.6,49.7c35,5.3,59.1,37.6,67.6,70.2c14,46.3,2.9,101.8-33.8,134.8c-2.5,3.8-3.7,8.2-5.6,12.2
	c19.8,8,40,15.2,60.1,22.5c-28,5-56.2,9.4-84.5,13c-54.3,55.5-135.1,73.8-210.1,75.1c-41.7,2.2-83.5-2.8-124.1-12.2
	c-24.1,8.6-47.1,20.7-71,29.8c-4.5-8.2-7.5-17.2-11.2-25.8c13.7-6.1,28.6-11.7,41.6-18.2c-9.8-5.3-22.4-10.5-32.7-16.9
	c-23.3,8.6-45.4,20.7-68.8,28.8c-4.8-7.2-7.7-17-11.2-25.4c17.6-7.6,36.1-14.6,52.9-23.3c-27-23.3-43.7-56.3-51.3-90.6
	c-12.3,4.2-24.3,12.7-36.4,18.8c9.3-14.5,20.5-28,29.1-43c-32.5,12.5-63.8,27.8-96,40.8c-9.1-24.5-18.2-49.1-26.2-74
	c37.9-4.1,75.7-10.3,113.4-15.2c-35.7-10.1-71.9-18.7-107.5-29c3.4-7.8,6.7-15.7,10.5-23.3c5.6-5.2,14-4.1,20.5-7.6
	c-1.7-7.1-12.5-12.9-6.8-20.7c5.8-9.4,8.5-20.4,14.7-29.5c33.6,24.5,66.5,49.8,100,74.4c9.7-15.5,11.6-34.9,24.9-48.3
	c-10.5-28.9-8.1-66.1,18-86c3.6,7.9,6.4,16.2,11.4,23.4c5.1-8.6,10.1-17.7,18.6-23.4C223.7,119.7,226,127.4,230.7,133.9 M498.5,23.9
	c0,35,4.4,69.8,4.1,104.9c13.7-1.1,27-4.9,40.9-5c-0.1-33,0-66-0.1-99c-1.6,0.1-4.8,0.4-6.4,0.5c-1,5.2-2.4,10.4-3.8,15.6
	c-2.5-5.4-3.2-11.2-4-17c-4.5-0.1-9,0-13.4,0.1c-1.8,7.3-3,14.8-5.2,22.1c-2.6-7.2-3.3-14.9-5.3-22.3
	C503.6,23.8,500.2,23.9,498.5,23.9 M392.7,46.9c-5.5,6.5-5.2,16.3-9,24c-3.3-5.3-4.2-13.7-9.2-16.9c-47.7,19.1-92.6,48.6-123.9,89.9
	c52.8-17.1,107.9-30.2,163.8-27.8c3.5-4.8,3.8-13.3,7-17c3.1,4.3,4,11.2,6.4,16.5c6.2,0.8,12.4,1.5,18.6,2.1
	c3.3-6.9,5.6-15.6,9.1-21.5c4,7.1,6.4,16.9,9.5,25.2c5.5,1.3,11.1,2.8,16.6,4.4c-1.2-33.7-3.6-67.2-4.1-100.9
	C448.6,29.6,419.8,36.2,392.7,46.9 M234,172.1c1.1,5.3,9.8,8.2,12.5,13.7l0.7-0.3c30.4,27.6,63.8,53.1,86.9,87.6
	c14.4,21.5,22.4,47.1,23.2,73c-6.8-36.8-30.8-69.4-58.8-94.3c-37.1-36.4-88.1-60.8-112.7-108.4c-5.9,19.8-1.2,40.8,8.5,58.5
	c17.4,30.4,43.7,54.6,71.2,75.8c-34.9-9.1-66.1-31.5-86.3-61.3c-16.8,18.6,2.6,41.9,19.2,52.4c27.5,20.1,59,33.9,90.6,46.5
	c-34.9-1.9-70.8-10.8-99.4-31.6c-1.6,20.2,7.2,41.3,24.5,52.5c24.5,16.4,55.2,18.6,83.8,20.2c-32.4,2.7-68.8,4.8-97.6-13.4
	c-24.5-17-29.8-49.1-26.9-76.9c-2.5-2.9-4.8-5.8-7.2-8.8c-16.4,33.7-19.4,73.4-8.5,109.2c19.3,69.7,93.5,104.1,159.5,115.6
	c87.3,12.5,185,9.5,260.7-41.1c-20.4,2.2-40.7,8.9-61.3,7.9c6.2-20,14.5-39.3,21.1-59.1c-8,7.1-18,10.9-27.1,15.9
	c-64.7,21.7-124.3-42.4-124.1-104.1c-4.7-45,16.6-91.6,54.7-116c35.2-18.9,82.2-11.2,107.8,20.1c7.3,3.2,13.2-12.2,20.4-15
	c1.7-0.8,3.4-1.4,5.2-2.2c4.5-2.4,9.2-4.3,14-5.9c-11.4-14.3-25.4-26.3-39.9-37.3c-24.9-0.7-51.5,11.8-75.3-0.6
	C393.4,124.4,310,145.3,234,172.1 M215.6,143.5c-0.9,4.3-2.8,9.9,1.9,12.6C220.2,152.2,219.8,146.4,215.6,143.5 M438.5,215.8
	c-43.4,39.9-41.5,118.2,3.3,156.6c16.4,13,39.1,19.9,59.5,12.7l-0.8-0.2c24-5.4,39.9-27.1,51.3-47.4c5.5,6.5,8.8,14.6,15,20.6
	c10.5,16.9,35.9,28.1,55.4,18.1l-0.8-0.2c26.6-10.5,39-40.6,43.6-67c4.6-39.1-6.7-89.4-47.5-105.3c-30.9-8.8-52.9,18.3-65.8,42.1
	c-12.9-23-32.3-44.3-59.4-49.1C472.6,194.2,451.9,201.6,438.5,215.8 M559.7,390.8c-3.6,11.2-8.1,22-12,33.1c24.1-3.2,48.1-7,72-11
	C599.6,405.7,579.7,398,559.7,390.8z"/>
<path class="st0" d="M498.5,23.9c1.7,0,5.1,0,6.8-0.1c2,7.4,2.7,15.1,5.3,22.3c2.2-7.2,3.4-14.7,5.2-22.1c4.5-0.1,9-0.2,13.4-0.1
	c0.7,5.8,1.5,11.6,4,17c1.4-5.2,2.7-10.4,3.8-15.6c1.6-0.1,4.8-0.4,6.4-0.5c0.1,33,0,66,0.1,99c-13.8,0.1-27.2,3.9-40.9,5
	C502.9,93.7,498.6,58.8,498.5,23.9z"/>
<path class="st1" d="M392.7,46.9c27.2-10.7,56-17.3,84.7-22.1c0.6,33.7,3,67.2,4.1,100.9c-5.5-1.6-11-3.1-16.6-4.4
	c-3.1-8.2-5.5-18-9.5-25.2c-3.5,5.9-5.7,14.6-9.1,21.5c-6.2-0.6-12.4-1.3-18.6-2.1c-2.4-5.3-3.3-12.1-6.4-16.5
	c-3.2,3.7-3.5,12.2-7,17c-55.8-2.4-111,10.8-163.8,27.8C281.9,102.5,326.8,73,374.5,54c5,3.2,5.9,11.6,9.2,16.9
	C387.5,63.2,387.2,53.4,392.7,46.9z"/>
<path class="st2" d="M234,172.1c75.9-26.8,159.3-47.7,239.3-27.3c23.8,12.4,50.4-0.1,75.3,0.6c14.5,11,28.4,23,39.9,37.3
	c-4.8,1.6-9.5,3.5-14,5.9c-52.3-26.5-112.2-31-169.7-36.2c-54.2-3.7-109.1,8.7-157.6,33.1l-0.7,0.3
	C243.8,180.4,235.2,177.4,234,172.1z"/>
<path class="st3" d="M185.8,143.4c24.5,47.5,75.6,72,112.7,108.4c28,24.9,52,57.5,58.8,94.3c-0.8-25.9-8.8-51.4-23.2-73
	c-23.1-34.5-56.5-60-86.9-87.6c48.4-24.3,103.3-36.8,157.6-33.1c57.5,5.2,117.4,9.7,169.7,36.2c-1.7,0.7-3.5,1.4-5.2,2.2
	c-7.9,3.3-15.4,7.8-20.4,15c-25.6-31.3-72.6-39-107.8-20.1c-26.8,10.6-43.8,36.4-53.3,62.5c-14.1,41.7-11.8,89.8,9.5,128.7
	c18.6,41.7,77.9,63.7,113.1,28.9c9.1-5.1,19.1-8.9,27.1-15.9c-6.6,19.9-15,39.2-21.1,59.1c-15.9,4.6-32.2,8.6-48.8,9.6
	c-28.7-4.4-50.8-26.6-79-32.2c-17.5-3.8-30.6,13.6-47.9,11.2c-17.8-0.4-31-15-48-18.3c-10.4-3.2-18.8,8.4-29.2,4.9
	c-11.2-6.4-17.8-18-28.2-25.4c-10.9-8.2-24.3,5.4-35.7-1c-15.6-8-28.9-19.7-42-31.2c-10.9-35.8-7.9-75.5,8.5-109.2
	c2.4,2.9,4.7,5.9,7.2,8.8c-2.9,27.8,2.4,59.9,26.9,76.9c28.8,18.1,65.3,16.1,97.6,13.4c-28.6-1.6-59.3-3.8-83.8-20.2
	c-17.3-11.2-26.1-32.3-24.5-52.5c28.6,20.8,64.5,29.8,99.4,31.6c-31.5-12.6-63-26.4-90.6-46.5c-16.6-10.5-36-33.8-19.2-52.4
	c20.2,29.8,51.4,52.2,86.3,61.3c-27.5-21.2-53.8-45.4-71.2-75.8C184.7,184.1,179.9,163.2,185.8,143.4 M347.6,378.2
	c2.5,20,34.7,7.5,41.1-5.2C375.3,372.7,358.6,368.3,347.6,378.2 M361.4,415.2c7.8,4.4,18.4,5.7,26.3,0.7
	c8.4-7.3,10.2-18.8,10.7-29.2C386,394.5,363.6,398.3,361.4,415.2z"/>
<path class="st3" d="M215.6,143.5c4.1,2.8,4.6,8.7,1.9,12.6C212.9,153.4,214.7,147.8,215.6,143.5z"/>
<path class="st4" d="M387.8,248.1c9.5-26.1,26.4-51.9,53.3-62.5c-38.1,24.4-59.4,71.1-54.7,116c-0.2,61.7,59.5,125.8,124.1,104.1
	c-35.3,34.8-94.5,12.8-113.1-28.9C376,337.9,373.8,289.9,387.8,248.1z"/>
<path class="st5" d="M548.9,205.8c5-7.1,12.5-11.6,20.4-15C562.1,193.6,556.2,208.9,548.9,205.8z"/>
<path class="st6" d="M438.5,215.8c13.4-14.2,34.1-21.6,53.6-19c27.1,4.7,46.6,26.1,59.4,49.1c13-23.8,35-50.9,65.8-42.1
	c40.8,15.9,52.1,66.2,47.5,105.3c-4.6,26.4-17,56.5-43.6,67c-18.2-3.3-32.3-16.6-43.1-30.9c-5.2,1.2-7.6,8.9-11.5,12.9
	c-6.2-6-9.5-14.1-15-20.6c-11.3,20.3-27.3,41.9-51.3,47.4c-46.2-6.9-76-53.4-77.7-97.7C420,262.4,427.3,237.8,438.5,215.8
	 M510.9,269.1c-10.6,16.9-11.5,44,5,57.5c17.1,4.9,23.5-17.4,22.6-30.5c-4.8-0.7-9.5-1.5-14.2-2.4c3.7-4.8,8-9.2,11.3-14.4
	C535.6,267.4,518.9,256.9,510.9,269.1 M625.5,273.8c-6.4,15.2-7.6,36.8,5.6,48.7c14,1.8,16.2-17.1,16.5-27.4
	c-3.8-0.6-7.6-1.2-11.4-1.8c4.4-6.4,13.1-13.5,6.2-21.4C639.5,263.9,627.2,265.5,625.5,273.8z"/>
<path class="st7" d="M441.8,372.4c-44.8-38.4-46.7-116.7-3.3-156.6c-11.2,22-18.5,46.6-15.8,71.5c1.7,44.3,31.5,90.7,77.7,97.7
	l0.8,0.2C480.9,392.3,458.2,385.4,441.8,372.4z"/>
<path d="M510.9,269.1c8-12.2,24.7-1.6,24.6,10.3c-3.2,5.2-7.6,9.5-11.3,14.4c4.7,0.9,9.5,1.6,14.2,2.4c1,13.1-5.5,35.4-22.6,30.5
	C499.4,313,500.3,286,510.9,269.1z"/>
<path d="M625.5,273.8c1.7-8.3,14-9.9,16.8-1.8c6.8,7.9-1.8,15.1-6.2,21.4c3.8,0.6,7.6,1.2,11.4,1.8c-0.3,10.2-2.4,29.2-16.5,27.4
	C617.9,310.6,619.1,289,625.5,273.8z"/>
<path class="st7" d="M566.7,358.2c3.9-4,6.2-11.7,11.5-12.9c10.8,14.2,24.9,27.5,43.1,30.9l0.8,0.2
	C602.6,386.3,577.2,375.1,566.7,358.2z"/>
<path class="st4" d="M157.5,366.6c13.1,11.5,26.4,23.2,42,31.2c11.4,6.4,24.8-7.2,35.7,1c10.3,7.3,17,19,28.2,25.4
	c10.5,3.5,18.8-8.1,29.2-4.9c17,3.3,30.2,17.9,48,18.3c17.3,2.3,30.4-15,47.9-11.2c28.3,5.6,50.4,27.8,79,32.2
	c16.6-1,32.9-5,48.8-9.6c20.6,1,40.9-5.6,61.3-7.9c-75.7,50.6-173.4,53.7-260.7,41.1C251.1,470.7,176.8,436.4,157.5,366.6z"/>
<path d="M347.6,378.2c10.9-10,27.7-5.5,41.1-5.2C382.3,385.8,350.1,398.2,347.6,378.2z"/>
<path d="M361.4,415.2c2.2-16.9,24.6-20.7,36.9-28.6c-0.5,10.5-2.3,22-10.7,29.2C379.8,420.9,369.2,419.6,361.4,415.2z"/>
<path class="st8" d="M559.7,390.8c20.1,7.2,40,14.9,60,22.1c-23.9,4-48,7.8-72,11C551.5,412.8,556,402,559.7,390.8z"/>
</svg>
